<svg width="30" height="42" viewBox="0 0 30 42" fill="none" xmlns="http://www.w3.org/2000/svg">
<path d="M12.7828 41.9656C0.610174 41.9656 -0.67305 28.4743 0.229981 21.3576C0.250727 21.1941 0.448763 21.1316 0.565424 21.248C2.51672 23.1951 4.92251 25.5121 7.78284 26.4656C9.78284 27.1322 12.7828 28.4656 13.7828 30.4656C14.5845 33.2713 12.4944 37.3622 11.6336 38.8748C11.5345 39.049 11.7239 39.2418 11.8952 39.1379C18.5432 35.1047 11.6552 22.1215 14.8153 9.62202C15.535 6.77537 17.0436 4.04736 19.6164 2.63239C23.1905 0.666709 27.8147 0.127928 29.3006 0.000692755C29.4788 -0.0145623 29.5771 0.195208 29.4634 0.333208C24.3815 6.501 26.7828 19.5951 26.7828 25.9656C26.7828 30.4656 26.2828 41.9656 12.7828 41.9656Z" fill="white"/>
</svg>
